<svg width="1200" height="800" viewBox="0 0 1200 800" fill="none" xmlns="http://www.w3.org/2000/svg">
  <rect width="1200" height="800" rx="36" fill="url(#bg)"/>
  <g stroke="#1B3568" stroke-width="6">
    <line x1="250" y1="220" x2="600" y2="150"/>
    <line x1="250" y1="220" x2="430" y2="470"/>
    <line x1="600" y1="150" x2="890" y2="280"/>
    <line x1="430" y1="470" x2="750" y2="550"/>
    <line x1="890" y1="280" x2="750" y2="550"/>
    <line x1="750" y1="550" x2="980" y2="650"/>
  </g>
  <g>
    <circle cx="250" cy="220" r="86" fill="#0F8F88"/>
    <circle cx="600" cy="150" r="76" fill="#6F81DE"/>
    <circle cx="890" cy="280" r="88" fill="#FFB357"/>
    <circle cx="430" cy="470" r="92" fill="#FF7DCA"/>
    <circle cx="750" cy="550" r="98" fill="#A7E38D"/>
    <circle cx="980" cy="650" r="64" fill="#9AD8FF"/>
  </g>
  <g fill="#11213F" font-family="IBM Plex Sans, sans-serif" font-size="28" font-weight="600" text-anchor="middle">
    <text x="250" y="228">Planner</text>
    <text x="600" y="158">Tools</text>
    <text x="890" y="288">Env</text>
    <text x="430" y="478">Memory</text>
    <text x="750" y="558">Verifier</text>
    <text x="980" y="658">Policy</text>
  </g>
  <text x="78" y="95" fill="#11213F" font-family="Sora, sans-serif" font-size="54" font-weight="700">Agentic Systems Graph</text>
  <text x="80" y="742" fill="#2D426E" font-family="IBM Plex Sans, sans-serif" font-size="36">Planning • tooling • memory • evaluation • adaptation</text>
  <defs>
    <linearGradient id="bg" x1="0" y1="0" x2="1200" y2="800" gradientUnits="userSpaceOnUse">
      <stop stop-color="#F8FFF9"/>
      <stop offset="1" stop-color="#EDF3FF"/>
    </linearGradient>
  </defs>
</svg>
